<svg width="200" height="200" viewBox="0 0 200 200" fill="none" xmlns="http://www.w3.org/2000/svg">
<path fill-rule="evenodd" clip-rule="evenodd" d="M123.384 60.9037C110.7 60.9037 100.443 52.6163 100.443 42.4275C100.443 32.2388 110.761 24 123.445 24C136.129 24 146.386 32.2875 146.386 42.4762C146.386 52.665 136.129 60.9037 123.384 60.9037ZM21 171.128L85.8171 71.19L69.6129 64.4137L56.3217 84.8887L39.3284 77.7712L61.4197 43.695L140.681 76.7962L157.007 51.6413L174 58.7588L148.874 97.515L115.616 83.67L98.6835 109.751L134.127 124.474L110.033 161.621L88.7303 152.749L101.718 132.712L79.0805 123.255L42.3023 180L21 171.128Z" fill="black"/>
</svg>
