<svg width="201" height="202" viewBox="0 0 201 202" fill="none" xmlns="http://www.w3.org/2000/svg">
<path fill-rule="evenodd" clip-rule="evenodd" d="M134.505 47.7856C117.841 47.7856 104.367 37.0544 104.367 23.8613C104.367 10.6681 117.921 0 134.585 0C151.248 0 164.723 10.7313 164.723 23.9244C164.723 37.1175 151.248 47.7856 134.505 47.7856ZM0 190.511L85.1519 61.105L63.864 52.3306L46.403 78.8431L24.0785 69.6269L53.1004 25.5025L157.228 68.3644L178.676 35.7919L201 45.0081L167.992 95.1925L124.299 77.265L102.055 111.037L148.617 130.101L116.964 178.202L88.979 166.713L106.041 140.769L76.3019 128.523L27.9853 202L0 190.511Z" fill="black"/>
</svg>
